<?xml version="1.0" encoding="UTF-8"?>
<svg id="svg5" xmlns="http://www.w3.org/2000/svg" xmlns:xlink="http://www.w3.org/1999/xlink" viewBox="0 0 183.5 188.94">
  <defs>
    <style>
      .cls-1 {
        fill: url(#Ikke-navngivet_forløb);
      }
    </style>
    <radialGradient id="Ikke-navngivet_forløb" data-name="Ikke-navngivet forløb" cx="-434.46" cy="359.67" fx="-434.46" fy="359.67" r="32.37" gradientTransform="translate(1323.3 1144.24) scale(2.83 -2.92)" gradientUnits="userSpaceOnUse">
      <stop offset=".26" stop-color="#00ac05"/>
      <stop offset=".57" stop-color="#00ac05"/>
      <stop offset=".72" stop-color="#ffc718"/>
      <stop offset="1" stop-color="#ffc718"/>
    </radialGradient>
  </defs>
  <g id="layer1">
    <path id="path402-9" class="cls-1" d="M47.3,157.29l-16.36-8.53s-10.31-6.76-10.31-18.49v-59.39s-.36-10.31,12.09-18.49c12.45-8.18,46.94-27.03,46.94-27.03,0,0,11.02-5.69,23.12-.36,12.09,5.33,47.65,26.67,47.65,26.67,0,0,12.8,6.4,12.45,21.69-.36,15.29-.36,55.48-.36,55.48,0,0-1.42,14.22-11.02,20.27s-29.87,17.78-29.87,17.78v22.05l38.76-22.05s22.76-10.67,22.76-39.47c0-36.99,.36-55.48,.36-55.48,0,0-.36-23.83-20.98-36.63-20.63-12.8-53.34-30.94-53.34-30.94,0,0-18.49-9.6-34.85-.36-16.36,9.25-54.05,31.65-54.05,31.65C20.27,35.67,0,48.83,0,69.45v62.23s-.36,20.63,16,30.94c16.36,10.31,32.89,18.31,32.89,18.31,12.76,5.37,18.48,6.75,30.31,4.51,5.2-.98,13.47-5.51,14.77-11.25,2.58-10.86,1.07-20.96,6.23-22.14,3.01-1.68,4.63-2.63,6.38-3.57,9.39-5.03,15.58-11.35,20.55-16.95,6.6-7.43,10.98-17.66,11.69-19.95,1.43-4.65,3.88-15,1.78-28.18-1.84-11.56-10.05-21.37-14.72-25.66-5.66-5.2-12.97-12.72-15.11-14.79-2.47-2.38-3.03-5.14-3.61-3.08-1.92,6.88-11.94,20.97-16.86,26.91-11.67,14.09-18.06,27.36-19.21,41.32-1.19,14.41,7.33,27.43,8.81,29.42,2.45,3.3,5.6,6.8,9.19,9.85,1.53,1.3,2.7,3.34,1.63,5.86-1.51,3.57-3.79,7.71-3.81,6.27-.04-2.97-.02-3.37,.03-6.8,.04-2.62-1.3-4.34-2.92-5.92-2.85-2.77-3.6-2.55-8.51-9.8-7.32-10.81-7.36-14.24-8.51-24.67-.83-7.53,3.3-19.76,5.62-24.61,1.17-2.45,2.15-2.74,1.12-3.25-10.87-5.36-17.98-12.97-20.81-17.13-1.86-2.74-2.25-3.21-1.99-.31,2.83,31.67-15.31,51.32,8.52,73.3,7.15,6.59,12.13,8.37,16.09,8.69,2.25,.18,7.24,3.72,7.39,6.44,.17,3.11,.14,3.92-.55,7.85-1.91,10.91-17.99,2.63-35.09-6.03h0Z"/>
  </g>
</svg>