<svg xmlns="http://www.w3.org/2000/svg" xmlns:xlink="http://www.w3.org/1999/xlink" width="165.229" height="170.128" viewBox="0 0 165.229 170.128"><defs><radialGradient id="a" cx="0.5" cy="0.5" r="0.486" gradientTransform="translate(-0.015 -0.015) scale(1.03 1.03)" gradientUnits="objectBoundingBox"><stop offset="0.264" stop-color="#00ac05"/><stop offset="0.528" stop-color="#00ac05"/><stop offset="0.769" stop-color="#ffc718"/><stop offset="1" stop-color="#ffc718"/></radialGradient></defs><path d="M136.9,231.166l-14.73-7.685s-9.286-6.084-9.286-16.651V153.355s-.32-9.286,10.887-16.651,42.268-24.336,42.268-24.336a25.9,25.9,0,0,1,20.814-.32c10.887,4.8,42.908,24.016,42.908,24.016s11.528,5.764,11.207,19.533-.32,49.953-.32,49.953-1.281,12.808-9.926,18.252-26.9,16.01-26.9,16.01v19.853l34.9-19.853s20.493-9.606,20.493-35.544c0-33.3.32-49.953.32-49.953s-.32-21.454-18.892-32.982-48.032-27.858-48.032-27.858-16.651-8.646-31.381-.32-48.672,28.5-48.672,28.5S94.311,133.5,94.311,152.074v56.037s-.32,18.572,14.409,27.858S138.34,252.46,138.34,252.46c11.492,4.838,16.639,6.079,27.29,4.063,4.681-.886,12.133-4.965,13.3-10.132,2.32-9.782.959-18.871,5.612-19.938,2.707-1.513,4.169-2.368,5.743-3.212,8.452-4.529,14.03-10.219,18.5-15.26a61.323,61.323,0,0,0,10.528-17.966,56.829,56.829,0,0,0,1.6-25.371c-1.658-10.408-9.053-19.242-13.252-23.1-5.093-4.681-11.68-11.453-13.6-13.314-2.22-2.147-2.732-4.628-3.25-2.77-1.727,6.192-10.751,18.883-15.178,24.228-10.508,12.687-16.263,24.632-17.3,37.2-1.068,12.974,6.6,24.7,7.935,26.492a54.334,54.334,0,0,0,8.272,8.872,4.392,4.392,0,0,1,1.471,5.274c-1.358,3.217-3.415,6.943-3.432,5.649-.035-2.674-.02-3.038.027-6.126.036-2.36-1.167-3.9-2.632-5.33-2.565-2.5-3.239-2.293-7.663-8.824-6.593-9.732-6.625-12.822-7.665-22.21-.751-6.783,2.968-17.794,5.061-22.159,1.057-2.2,1.934-2.467,1.006-2.924-9.789-4.823-16.19-11.679-18.739-15.424-1.676-2.463-2.028-2.895-1.794-.278,2.551,28.518-13.784,46.206,7.669,66,6.434,5.936,10.926,7.536,14.491,7.825,2.027.164,6.523,3.348,6.653,5.8a23.3,23.3,0,0,1-.494,7.068c-1.724,9.82-16.2,2.369-31.6-5.43Z" transform="translate(-94.31 -89.536)" fill="url(#a)"/></svg>